<?xml version="1.0" encoding="UTF-8"?>
<svg id="Layer_2" xmlns="http://www.w3.org/2000/svg" version="1.1" viewBox="0 0 612 792">
  <!-- Generator: Adobe Illustrator 30.8.1, SVG Export Plug-In . SVG Version: 2.1.4 Build 1)  -->
  <defs>
    <style>
      .st0 {
        fill: none;
        stroke: #ed1c24;
        stroke-miterlimit: 10;
      }
    </style>
  </defs>
  <path class="st0" d="M496.48,357.82c-.3-9.12-39.35-33.73-68.07-44.06-16.42-5.91-46.34-9.12-64.27-7.75-1.82-3.65-12.15-27.65-20.97-27.35-5.49.19-6.66,7.15-13.52,11.85-5.77,3.95-14.59,3.95-15.19,6.84-.57,2.71.86,11.86-.46,17.93-12.15,1.98-71.26,23.85-80.07,23.85-15.35,0-41.93-24.16-46.95-24.16s-.78,29.22-1.67,35.1c-.76,5.01-18.54,42.24-14.59,47.56,3.38,4.54,49.07-31.75,63.2-30.84,8.2.53,73.69,29.22,111.98,32.21.91,12.31-.46,22.33,4.56,21.88s29.96-16.97,32.84-20.77c6.38-.91,22.18-1.26,42.82-6.58,17.74-4.58,70.6-27.96,70.35-35.7Z"/>
</svg>